<svg height="150" xmlns="http://www.w3.org/2000/svg" viewBox="0 0 24.69 22.16"><defs><style>.cls-1{fill:#231f20;}</style></defs><g id="Calque_2" data-name="Calque 2"><g id="Layer_1" data-name="Layer 1"><path class="cls-1" d="M24.4,19.32l-.12-.69.41.55A2.91,2.91,0,0,0,23.44,17l.68-.08c-1.46-.17-1.44-1.23-1.44-1.23l.6.28a7.53,7.53,0,0,1-.94-2.42l.49.53a5.47,5.47,0,0,0-1.13-2.49l.53.28a1,1,0,0,0-.29-.41,3.85,3.85,0,0,0,1.59-1.55l-.53.19A3.49,3.49,0,0,0,23.3,7l-.24.6a3.16,3.16,0,0,0-2.41-2.82l.27.6a3,3,0,0,0-3.56.21h.91A4.45,4.45,0,0,0,16,8.05l.65-.46a1.56,1.56,0,0,0,.62,2.17,15,15,0,0,0-1.51.13l.49-.42A6.85,6.85,0,0,1,13,9.26l.46-.35a5.3,5.3,0,0,1-3.09-1,5,5,0,0,1,.86-.55c-1.15,0-1-1.25-1-1.25L11.2,6C9.79,5.69,9.88,3.71,9.88,3.71l.58.14-.64-1.2.59.23c-.35-1.36-2.23-2-2.23-2L8.76.77A4,4,0,0,0,6.42.26L6.73,0A3.07,3.07,0,0,0,4.45.86L4.8.33c-1.67.44-2,2.49-2,2.49a4.57,4.57,0,0,0-1.52,0L1,2.81a.8.8,0,0,0-.27,0,.78.78,0,0,0-.35.62,1.35,1.35,0,0,0,0,.4c-.31.92-.81,3,.46,3.69l0-.81a2.14,2.14,0,0,0,.79,1L1.91,7l.33,1,.46-.84A13.68,13.68,0,0,1,2,9.41l.52-.6a16.69,16.69,0,0,1-.79,2.74l.52-.81a3.83,3.83,0,0,1-.23.94,4.6,4.6,0,0,0-.29,2.67l.37-1a4.25,4.25,0,0,0,.65,3.38l0-.77a3.28,3.28,0,0,0,.8,1c.95,3.55.22,4.26.22,4.26a1.42,1.42,0,0,0-.54,1H5.13a6,6,0,0,0,1.16-3.51c.43,2.24,0,2.55,0,2.55a1.45,1.45,0,0,0-.55,1h1.9a6.2,6.2,0,0,0,1.16-3.62,11.56,11.56,0,0,0,1.37.08l-.58-.42c.84.16,3.13.42,3.13.42l-.58-.44a11,11,0,0,0,2.22.09,2.65,2.65,0,0,0,1.25.87l-.11-.42a3.91,3.91,0,0,0,2.51.59L17.27,19a3.09,3.09,0,0,0,.72-.12,2.47,2.47,0,0,0,.49.22l-.1-.36,0,0a1.79,1.79,0,0,0,.44.27,3.74,3.74,0,0,1,0,.41l.25-.33.16.05a2.89,2.89,0,0,1,.38,2,1.48,1.48,0,0,0-.53,1H21.2a4.59,4.59,0,0,0,.25-2.87l.06,0-.1-.6h0l.31.41a2.11,2.11,0,0,1,0,.32l.33-.43a3.06,3.06,0,0,1,.46,2.19,1.48,1.48,0,0,0-.53,1h2.11a4.64,4.64,0,0,0,.26-2.87ZM8.4,5.5l-.13-.34a3.23,3.23,0,0,1-.69,1.35l0-.24s-.63.62-1,.66l.1-.28a1,1,0,0,1-.55.25l.07-.36L6,6.84a1,1,0,0,1-.2-.77l-.13.22a3.1,3.1,0,0,1-.09-.86l.25-.37a2.34,2.34,0,0,0,0,1,1.16,1.16,0,0,0,.12.22L6.19,6l-.08.36a1.17,1.17,0,0,0,.56-.26l-.11.28c.35,0,1-.66,1-.66l0,.24A3.18,3.18,0,0,0,8.19,4.6l.14.34A2.83,2.83,0,0,0,8.7,3.48,2.76,2.76,0,0,1,8.4,5.5ZM8.92,4,8.7,3.46a2.09,2.09,0,0,0-.1-.62l.24.61A1.68,1.68,0,0,0,9,3,1.42,1.42,0,0,1,8.92,4Zm11.27,6.56a10.37,10.37,0,0,0-1.08-.32l.63-.18a5.93,5.93,0,0,0-2.41-.31,1.7,1.7,0,0,1,.86-1.83L18,8.6a1.43,1.43,0,0,1,1.48-1L19.15,8s1.7-.66,2,1l-.62-.39A1.66,1.66,0,0,1,20.19,10.57Z"/></g></g></svg>