<svg height="150" xmlns="http://www.w3.org/2000/svg" viewBox="0 0 200 243.33"><defs><style>.cls-1{fill:#231f20;fill-rule:evenodd;}</style></defs><g id="cat"><path class="cls-1" d="M157.78,224.13c10.43,1.31,18.36-20.94,20.56-40.36,4.65-40.83-35-70-21.13-104.71,14.44-36,64.52,17.24,32,20-31.52,2.66,16.24,49.1-1,103.16-4.38,13.73-18.61,40.83-34.87,40.66-36.2-.38-67,.93-105.16-.28-5.24-.17-3-4.83-1.14-8.23,7.32-13.6,25.33-4.92,35.32-8.16C52.72,207,44.88,167.75,81,154.58c-38.77,13.18-19.48,38.79-28.71,54.54-4,6.92-6.48,16.42-8.74,24.38-1.44,5.07-3.94,9.32-8.7,9.53-7.76.34-18.86,1.61-19.92-5.94-.45-3.23,3.74-11.08,12.69-8.71,21.05-54.25-25.92-82-7.81-121.6,4.31-9.4,9.25-13.93,4.89-22.58-1.1-2.18-19.35-1-22.36-13.78-4.71-3-1-6.21.4-9.7a37.32,37.32,0,0,0,2.47-9.4c-2.4-15.1,11-22.2,22.11-28.7A47.54,47.54,0,0,0,34,3.93C34.44,1,33.63-.26,36.51,0,45.15,1,52.9,13.4,53,21.61,87.07,44.16,73.68,57.5,84.9,73.23c47.53,66.64,92,59.2,72.88,150.9Z"/></g></svg>