<svg xmlns="http://www.w3.org/2000/svg" viewBox="0 0 105.58 74.1"><defs><style>.cls-1{fill:#231f20;}</style></defs><g id="Calque_2" data-name="Calque 2"><g id="Layer_1" data-name="Layer 1"><path class="cls-1" d="M98.57,56.54c-8.09-.24-8.29-6.86-8.29-6.86,0-.44.09-.87.13-1.29,1.7,4.23,4.75,5.11,4.75,5.11L94,51.34c6.87,5.86,10.06-1.4,10.06-1.4-5.61-.13-5.86-3.18-5.86-3.18H101a4.45,4.45,0,0,1-4-3.95,30.26,30.26,0,0,0-2.41-7.89l1.65,1.91a12.71,12.71,0,0,0-4.71-8.91l2.16,1.4c-3.92-6.7-11.08-6.35-14.39-5.76a23.92,23.92,0,0,0-3.79-.71L75,22.72l1.23-.67-5.84.05a20.36,20.36,0,0,0-2.58,0H53.76A41.47,41.47,0,0,1,38,19.47c-.63-.26-3.71-1.75-3.71-1.75l2.73-.07a22.74,22.74,0,0,1-5.77-2.38l2.27-.09a8.58,8.58,0,0,1-4.1-3.38l1.09-.32c-2.12-1.36-4.11-5-4.11-5l1.48.73C25.79,1.67,21.17.89,21.17.89h1.31A7.08,7.08,0,0,0,16.32.57l.6-.49c-5.62.65-6.69,4.49-6.69,4.49A4.89,4.89,0,0,1,7.44,6.82c-1,.21-3.22.18-4.68.31A1.52,1.52,0,0,0,2.32,7,4.31,4.31,0,0,0,1.13,7a1.34,1.34,0,0,0-.59.2A1.78,1.78,0,0,0,0,8.73a2.21,2.21,0,0,0,.38,1.42c0,.07,0,.14,0,.22,0,2.4,0,4.65,1.18,6.83a4.92,4.92,0,0,0,2,2.13c1.18.6,2.39.36,3.65.42S9.64,21,10.34,22c1.17,1.73.95,3.82.68,5.84l.9-1.17a22.49,22.49,0,0,1-1,5.07l1.16-1.3s-.37,7.05,2,11.1l.38-2.7a14.26,14.26,0,0,0,.94,4.79c2,19.32-5.82,26.25-5.82,26.25C6.33,71.3,6.76,74.1,6.76,74.1H19.15c3.56-2.35,5.2-8.17,5.2-8.17l.82,1.26-.35-3.72,1,2.6a15.36,15.36,0,0,0-.09-6.17l1.45,4.34c.36-2.66-1.17-8.55-1.17-8.55l1.85,3.44a14.94,14.94,0,0,0-.81-5c.25.08.51.15.79.21l.36.64c0-.19,0-.38-.05-.57a6.45,6.45,0,0,0,.66.12c1.53,12.91-3.66,15.37-3.66,15.37a3.56,3.56,0,0,0-2.32,4.19H35.2c3.25-2.35,4.12-8.17,4.12-8.17l1,1.26-.84-3.72,1.33,2.6a16,16,0,0,0-.91-6.17l2,4.34c0-2.66-2.31-8.55-2.31-8.55l2.31,3.44a13.11,13.11,0,0,0-1-3.85,17.3,17.3,0,0,1,6.54,2.48l-1.69-2.53s4.83,1.93,8.33,1.93l-4.71-1.81s3.47.39,8.26.47a6.32,6.32,0,0,0,1.94,1.29l-.64-1.28h.23l-.27-.09L58.5,55,59,55c1.28,1.39,3.36,3.48,4.78,4L62.35,56.5s4.42,3.79,7.2,4.64L66.7,58.92s4.35,2.56,6.88,2.79c0,0,6.48,2.79,7,8.72C77.73,71.71,78,74.1,78,74.1H90.19a20.58,20.58,0,0,0-3.12-12.8,8.49,8.49,0,0,0,1.8.41s6.48,2.79,7,8.72c-2.9,1.28-2.66,3.67-2.66,3.67h12.22C106.53,63.63,98.57,56.54,98.57,56.54ZM17.28,18.05l.43-1.13c-2.54,1.56-3.18,1-3.18,1a11.9,11.9,0,0,1-.25-4,11.61,11.61,0,0,0,.3,3s.65.53,3.18-1l-.43,1.13a22.07,22.07,0,0,0,4.48-4.64l-.21,1.17A23.1,23.1,0,0,1,17.28,18.05Zm6.9-5.72L24,10.71a9.16,9.16,0,0,1-2.59,4.48l.19-1.06a8.9,8.9,0,0,0,2.45-4.34l.17,1.62a6.3,6.3,0,0,0,1.61-3.15A6,6,0,0,1,24.18,12.33ZM55.53,54.62s.45.08,1.19.17l.24.31Z"/></g></g></svg>