<svg height="150" id="Ñëîé_1" data-name="Ñëîé 1" xmlns="http://www.w3.org/2000/svg" viewBox="0 0 409.02 428.24"><defs><style>.cls-1{fill:#231f20;}</style></defs><path class="cls-1" d="M207.22,423.35c0,3.38-4.16,4.73-8,4.88h-.4l-.37,0h-.16l-.17,0h0a13.56,13.56,0,0,1-5.59-1.68,13.84,13.84,0,0,1-4.44-3.78,16.35,16.35,0,0,1-5,2.27,22.07,22.07,0,0,1-5.88.81l-1.2,0-.17.35-.35.79a.52.52,0,0,1-.44.3h0a.49.49,0,0,1-.44-.27c-.25-.47-.49-1-.73-1.44-.37-.08-.74-.16-1.09-.26a8.73,8.73,0,0,1-5.3-3.6,11.15,11.15,0,0,1-5.73-1.7l-.15.14-.62.61a.5.5,0,0,1-.35.14.51.51,0,0,1-.17,0,.49.49,0,0,1-.33-.41c-.08-.69-.15-1.39-.19-2.1a6,6,0,0,1-1.1-2.14C157,412,163.5,400,166.76,396c1.86-2.27,3.34-9,4-15.82l-1,0a14.89,14.89,0,0,1-2.18-.14.45.45,0,0,1-.34.15.48.48,0,0,1-.44-.27,6.91,6.91,0,0,1-3.77-1.83,10.72,10.72,0,0,1-6.71,2.72h-.51c-.21,0-.46,0-.75,0a.5.5,0,0,1-.21.05h-.06a.44.44,0,0,1-.19-.07h0c-1.42-.11-3.34-.49-4.35-1.62h0a25.26,25.26,0,0,1-3.79.32,11.79,11.79,0,0,1-5.59-1.18h0l-.07.06a.55.55,0,0,1-.33.11.51.51,0,0,1-.2,0A.5.5,0,0,1,140,378c0-.08,0-.17,0-.25a6.84,6.84,0,0,1-2.13-2.62,2.81,2.81,0,0,1-.25-1.16l-.13,0a.43.43,0,0,1-.27-.08,9.93,9.93,0,0,1-1-.71l0,0-.18-.16h0c-3-2.64-2.22-5.53-2.18-5.66.51-5.14,10.68-11.92,14.36-12.84a13.86,13.86,0,0,0,5.6-3.2c8.27-11.69,10.15-17.7,10.26-20.67.14-3.87,1.14-6.94,2.41-10.82.86-2.64,1.84-5.63,2.82-9.61,2.2-9-8.85-18.91-10.4-20.25-5.22,1-9.37,1.83-9.47,1.86a38.26,38.26,0,0,1-12,2,35.53,35.53,0,0,1-24.68-10.14c-5.34-8.36-17.49-14.69-20.43-16.14a27.89,27.89,0,0,0,0,3.77c.76,9.75.59,39.31-3.2,63.45,0,.05-.31,12,1.33,19.82s1.35,25.92-1.33,35.83c.42,1.16,2.78,8.15-.14,11.75a.45.45,0,0,1-.45.18.49.49,0,0,1-.39-.29,28.32,28.32,0,0,0-2-3.77,52.23,52.23,0,0,1-4,13.56c-2.14,4.49-6.78,7-12.64,7-.7,0-1.41,0-2.14-.11a13.65,13.65,0,0,1-5.7-1.95h0l-.05.05a.5.5,0,0,1-.37.17l-.14,0a.52.52,0,0,1-.36-.4l-.09-.54v0a6.53,6.53,0,0,1-1.3-1.44,9.21,9.21,0,0,1-.74-1.43,15.78,15.78,0,0,1-9.91,5.28,16.16,16.16,0,0,1-2.37.18,12,12,0,0,1-6.48-1.73h0l-.11.1a.48.48,0,0,1-.34.14.57.57,0,0,1-.18,0,.52.52,0,0,1-.32-.43v0a23,23,0,0,1-5.59.9l-.6,0a.51.51,0,0,1-.39.21h0a.52.52,0,0,1-.45-.27v0a5.9,5.9,0,0,1-3.66-1.86,6,6,0,0,1-1.08-1.69,12.86,12.86,0,0,1-2.3.21A7.26,7.26,0,0,1,20.61,413c-.14-.11-.26-.24-.39-.36h0a.33.33,0,0,1-.14,0,.51.51,0,0,1-.25-.39h0a4.89,4.89,0,0,1-1-2.66c-.34-3.87,3.4-11.14,8-15.55,2.19-2.09,5.53-4.48,9.13-4.09,5.81-3,12.65-11.22,12.72-11.31,3.15-4.36,3.91-29.54,1.68-34.73s-2.05-15.77-2-16.21a50,50,0,0,0-1-23.36C45.1,296,44.15,272,47,262.05a39.43,39.43,0,0,0-.74-25.69c-3.11-8.29-3.7-26.49-1.76-32.57s5.21-21.55,5.24-21.7C53.45,152,64.46,138,66.18,136c-1-2-2-4-2.7-5.6a24.46,24.46,0,0,0-5.54-7.32c-14.17-12.33-15.6-28.93-15.55-35.54-1.29,2.53-3,4-5,4.6-3.83,1-8.79-1.31-15.16-7.07C9,73.09,3,53.76.53,43.3-1.63,33.93,2.66,28,15.33,22.7,24.76,18.78,35.93,12.26,44.9,7c2-1.15,3.85-2.25,5.62-3.26,10.25-5.9,15.34.05,15.38.11a13.47,13.47,0,0,0,5.6,4.27,73.24,73.24,0,0,1,28.51-7c4.91-.13,9.33-.41,13.24-.65,9-.55,15.49-.95,20.43.68a36.77,36.77,0,0,1,9.71,4.56A11.72,11.72,0,0,1,150.15,1c3.3-.74,6.89.19,10.65,2.79,10.75,7.4,22.4,10.16,27.22,10.16,4,0,20.18,2.71,21.25,15.21.89,10.48.44,53.18-7,71.23-.09.18-1.71,2.93-4.4,3h-.08c-2.06,0-4.1-1.6-6.07-4.74-4.78-7.63-5.57-10.82-6.42-14.2-.15-.6-.3-1.21-.47-1.85l-.36-1.31a103.53,103.53,0,0,0-4.06-12.58c-.72,3.63-2.5,12.34-3.44,15-.42,3.55-.89,7.74-1.24,12-.71,8.47-4.71,16.74-12.55,25.88h0a81.72,81.72,0,0,1,11,4.63h0c1.39.1,26.48,1.85,44.5,7.3a79.22,79.22,0,0,1,16.25-.5.51.51,0,0,1,.22-.3c.52-.32,52.24-32.62,68.44-38.24a244,244,0,0,1,26.31-7.26.56.56,0,0,1,.34-.09h0c20.07-4.33,47-7.43,65.67.86,1.1.4,10.91,4,12.44,5.39a1.34,1.34,0,0,1,.61,1.07c0,.74-.57,1.48-1.82,2.25l-.31.2c-3.07,2-11.21,7.12-44.09,9.38-30,2.06-37.88,7.39-47,13.57-1.17.79-2.35,1.59-3.6,2.4-8.22,5.31-22.74,17-32.45,25.34l0,0h0c-3.44,3-6.26,5.53-8,7.25a108.29,108.29,0,0,1,12.71,16.76,66,66,0,0,1,8.15,20.37c1.14,5.39,2,9.72,2.67,13.55,2.08,11,3.12,16.58,7.95,25.48C309.64,242.82,315,267.46,316,279.9c0,.05,1.76,9.92,4.68,14.78,3.18,5.3,4.55,20,4.06,23.82a59.92,59.92,0,0,0,.13,11.42c.15,2.08.31,4.23.34,6.23,0,2.94,0,5.9.06,8.88,0,12.7,0,25.84,3.46,38.53.13.3,3.64,8.92.92,13.25a5.28,5.28,0,0,1-4.38,2.37.48.48,0,0,1-.4.31h-.06a.49.49,0,0,1-.42-.24l-.08-.13a7.81,7.81,0,0,1-5.06-2.55,4.32,4.32,0,0,1-.86,1c-1.66,1.46-4.28,1.79-6.28,1.79a18.15,18.15,0,0,1-2.82-.21,6.39,6.39,0,0,1-3.91-2.86h0a8.86,8.86,0,0,1-5.69,2.15.5.5,0,0,1-.37.24h-.06a.49.49,0,0,1-.42-.24l0-.05a6.34,6.34,0,0,1-1.33-.26,5.75,5.75,0,0,1-2.46-1.38,9.52,9.52,0,0,1-3.84,1,5.55,5.55,0,0,1-2.71-.67,5.7,5.7,0,0,1-.61-.39.39.39,0,0,1-.27.1.45.45,0,0,1-.16,0,.51.51,0,0,1-.34-.42c0-.12,0-.23,0-.35a9.57,9.57,0,0,1-2.05-3.6,12.4,12.4,0,0,1-.5-2.11c-1-7.08,6.62-14.9,7.35-15.63,2.64-4.41,3.89-19.08,3.9-19.23,0-.73-.26-2.45-.59-4.62-.7-4.61-1.75-11.57-1.41-16.87.48-7.41-1.15-9.91-1.16-9.94-6.29-7.54-4.66-21-4.59-21.59.72-8.36-19.35-23.89-19.56-24A34.35,34.35,0,0,1,258,259c-10.47,7.72-32.69,16.69-32.91,16.78l-2.15.75c-4.36,18.07-4.1,24.7-3.75,33.86.05,1.19.09,2.43.13,3.74.37,11.82-2.62,44.72-5,50.86-2.19,5.63.57,30.29,2.68,37.34.29.95.8,2.23,1.4,3.71,2.06,5.1,4.88,12.08,2.77,16.23a5.74,5.74,0,0,1-4,3,6.63,6.63,0,0,1-.89.16h0l0,.15a.5.5,0,0,1-.38.37h-.1a.51.51,0,0,1-.4-.19c-.07-.1-.15-.19-.23-.29h0a12.89,12.89,0,0,1-8-3.07C207.2,422.72,207.22,423,207.22,423.35Z"/></svg>