<svg xmlns="http://www.w3.org/2000/svg" viewBox="0 0 60.5 41.2"><defs><style>.cls-1{fill:#231f20;}</style></defs><g id="Calque_2" data-name="Calque 2"><g id="Layer_1" data-name="Layer 1"><path class="cls-1" d="M13.51,23.34h0Z"/><path class="cls-1" d="M10.38,22.46l0,0Z"/><path class="cls-1" d="M10.24,22.33l0,0Z"/><path class="cls-1" d="M10.33,22.42l0-.05Z"/><path class="cls-1" d="M13.62,23.33h0Z"/><path class="cls-1" d="M13.2,23.35h0Z"/><path class="cls-1" d="M13.32,23.35h0Z"/><path class="cls-1" d="M13.22,23.35h0Z"/><path class="cls-1" d="M13.41,23.35h0Z"/><path class="cls-1" d="M57.26,34.06l-.1-.09h0l-.07-.05,0,0,0,0a8,8,0,0,0,3.5-.66A5.54,5.54,0,0,1,56,30a3.69,3.69,0,0,0,3.09,1.34,4.83,4.83,0,0,1-3.31-4.42A2.26,2.26,0,0,0,58,28.54c-2.27-1.28-2.47-5.33-2.47-5.33a4.49,4.49,0,0,0,1.81,2.94c-1-.93-1.2-3.39-1.2-3.39-.41-4.2-2.56-5.53-3.68-5.94-3.35-5.14-11.23-5-11.23-5L29,11.15a13.81,13.81,0,0,1-6.91-2.56c-.23-.19-.44-.39-.65-.6l1.36.13a6.65,6.65,0,0,1-2.42-1.46l1.47.17a5.41,5.41,0,0,1-2.34-1.36c-.36-.53-.7-1.08-1.07-1.6C17.26,2.23,15.8.64,13.86.18a7.08,7.08,0,0,0-6,1.35,19.75,19.75,0,0,0-2,2.63c-.41.5-2.63.83-3.24.91a6.28,6.28,0,0,0-1.54.31,1.69,1.69,0,0,0-.55,0,.75.75,0,0,0-.29.09A.9.9,0,0,0,0,6.23a1.28,1.28,0,0,0,.12.61A6.73,6.73,0,0,0,.4,8.74a3.25,3.25,0,0,0,1.26,1.85,4.31,4.31,0,0,0,1.93.55c.91.08,3.34,0,4.24.18,2.16.46,3.49,2.39,4.13,4.42a1.7,1.7,0,0,1-.46.63,4.15,4.15,0,0,0,.57-.25l.12.45a2.64,2.64,0,0,1-.45.29A5,5,0,0,0,10.35,18a4,4,0,0,0-.23.34,1.13,1.13,0,0,0,.08,1.21A1.92,1.92,0,0,1,11,18a1.41,1.41,0,0,1-.24,1.7,11,11,0,0,0-.9.91,1.37,1.37,0,0,0,.33,1.71,5.13,5.13,0,0,0,1.74.34,6.77,6.77,0,0,0,1.42-.14,4.52,4.52,0,0,0,1.52-.45,2.79,2.79,0,0,1-2,1,5.82,5.82,0,0,0,4.22-1.29c.1-.11.78-.87.52-1,.6.27.06,1.25.06,1.25C19,21,18,20.31,18,20.31c-1-.63.57-2,.57-2,.92-.91-.21-1.7-.21-1.7-2.92-3.07-1.3-3.83-1.3-3.83a1.48,1.48,0,0,0,.65,2.05,2,2,0,0,1-.06-1.71,2.83,2.83,0,0,0-.51-2.82,4.47,4.47,0,0,1-1.47-2.42c-.25-1.44-.14-2.67-1.24-4A4.47,4.47,0,0,0,14,3.46a3.78,3.78,0,0,1,1.48,1.15c1.1,1.31,1,2.53,1.24,4A4.43,4.43,0,0,0,18.2,11a2.84,2.84,0,0,1,.51,2.83,2,2,0,0,0,.06,1.7,1.47,1.47,0,0,1-.65-2s-1.62.75,1.3,3.82c0,0,1.13.8.21,1.71,0,0-1.52,1.35-.57,2,0,0,1,.67-.29,1.73,0,0,.54-1-.05-1.25.25.11-.43.87-.53,1A5.85,5.85,0,0,1,14,23.76a2.84,2.84,0,0,0,2-1,4.52,4.52,0,0,1-1.52.46l-.74.11a14.72,14.72,0,0,0,1.22,3.83L14.55,24A13.07,13.07,0,0,0,16,28.38a18.3,18.3,0,0,1-1.25,7.12l0,.06,0,0,0,0,0,.06v0l0,.09,0,.05,0,0,0,0,0,.06v0l0,.06,0,.06,0,0,0,.05,0,0,0,0,0,0,0,.06,0,0,0,0,0,0,0,0,0,0,0,0,0,0,0,0,0,0,0,0,0,0L14,37l0,0,0,0,0,0,0,0,0,0,0,0,0,0,0,0,0,0,0,0,0,0,0,0v0l0,0,0,0,0,0v0l0,0,0,0,0,0h0l0,0,0,0,0,0v0l0,0h0l0,0v0l0,0h0l0,0h0l0,0h0l0,0h0l0,0h0l0,0h0l-.07.06h0l0,0h0l0,0h0l0,0h0l-.05,0h0l-.05.05h0l0,0h0a2,2,0,0,1-.21.16,3.61,3.61,0,0,0-.59.3l-.08.05-.23.16,0,0a1.84,1.84,0,0,0-.29.26h0a2.5,2.5,0,0,0-.75,1.88h4.25l.06,0,.1-.07a2.69,2.69,0,0,0,.27-.2l.11-.08.1-.09.25-.22h0a1.45,1.45,0,0,0,.22-.21l0,0A17.27,17.27,0,0,0,19,36l.7,1.71-.33-3.27,1.05,2.27A9.37,9.37,0,0,0,20,32.16l1.19,3.41c.31-1.7-.88-6.08-.88-6.08L21,31.34A10.84,10.84,0,0,1,21.24,36h0a3.24,3.24,0,0,1-1.66,2.5,3,3,0,0,0-.83.52l-.05.06-.1.1-.1.11-.08.11,0,.06a1.92,1.92,0,0,0-.25.55l0,.1a1.81,1.81,0,0,0-.05.31,2,2,0,0,0,.05.75h4.25a3.11,3.11,0,0,0,.28-.23.39.39,0,0,0,.1-.08l.09-.08.08-.09.09-.09.17-.18.12-.14a2.43,2.43,0,0,0,.2-.25l0-.05a3.46,3.46,0,0,0,.22-.31c.05-.07.1-.14.14-.21s.14-.21.2-.32l.1-.17c.11-.2.22-.39.31-.59l.06-.11.12-.26a.54.54,0,0,0,0-.11c.05-.1.09-.2.13-.3s.1-.23.14-.34l0-.09c0-.06,0-.12.07-.17l0-.09v0l0-.08,0,0c0-.05,0-.1,0-.15.08-.21.13-.38.16-.49v0a.82.82,0,0,0,0-.11l1,1.71-.92-3.27L27,36.71a10.39,10.39,0,0,0-1.2-4.55l1.81,3.41c0-1.37-1.29-4.48-1.79-5.64l.06,0,2,3.6a12.18,12.18,0,0,0-.91-3.13,4.9,4.9,0,0,1,2.25,3.06,5.46,5.46,0,0,0-1-3.57s2.71,1.38,3.11,4a8.39,8.39,0,0,0-.77-3.43A6.16,6.16,0,0,0,34.35,33a3.87,3.87,0,0,1-2.64-3,12.18,12.18,0,0,0,5.4,3.1s-3.22-1.14-3.33-3.33a12.75,12.75,0,0,0,4.29,3.16,2.91,2.91,0,0,0,.27.24L38.27,33c.21.08.41.15.62.21,0,0-.27-.13-.69-.36l-.54-1.2.42.21a19.89,19.89,0,0,0,4.06,4.1l-1.32-2.33s2.9,3.12,5,4L44.3,35a4.66,4.66,0,0,1,2.56,3.87l.29-2.16L47.86,40,48,37.4l.61,2.08.59-1.71a1.59,1.59,0,0,1,.24.2A2,2,0,0,1,50,39.3l-.23.08-.1,0-.1.06,0,0-.23.2,0,0a1.61,1.61,0,0,0-.36.68v0l0,.11c0,.1,0,.2,0,.28s0,.08,0,.12,0,.22,0,.22h3.84c0-.36.07-.71.08-1s0-.57,0-.84v-.11a9.63,9.63,0,0,0-.24-1.64l.1,0-.15-.26a7.84,7.84,0,0,0-.86-2,4.55,4.55,0,0,1,2,3.55l.29-2.16L54.58,40l.1-2.58.6,2.08.59-1.71a1.59,1.59,0,0,1,.24.2,2,2,0,0,1,.58,1.33,1.57,1.57,0,0,0-.52.25,1.7,1.7,0,0,0-.37.39.59.59,0,0,1,0,.08,2,2,0,0,0-.1.21l0,.08a1.52,1.52,0,0,0-.06.2s0,.05,0,.07,0,.2,0,.28v.06a2.07,2.07,0,0,0,0,.28h3.84c0-.14,0-.27,0-.4a8,8,0,0,0-2.09-6.7ZM15.75,26.25l.24.42c0,.19,0,.37,0,.55A6.24,6.24,0,0,1,15.75,26.25Zm22,6.32A7.19,7.19,0,0,1,35,30.14s.7.44,1.74,1A8.39,8.39,0,0,0,37.74,32.57Z"/><path class="cls-1" d="M13,23.35h0Z"/></g></g></svg>